<?xml version="1.0" encoding="UTF-8" standalone="no"?>
<!DOCTYPE svg PUBLIC "-//W3C//DTD SVG 1.1//EN" "http://www.w3.org/Graphics/SVG/1.1/DTD/svg11.dtd">
<svg width="100%" height="100%" viewBox="0 0 3000 2000" version="1.1" xmlns="http://www.w3.org/2000/svg" xmlns:xlink="http://www.w3.org/1999/xlink" xml:space="preserve" xmlns:serif="http://www.serif.com/" style="fill-rule:evenodd;clip-rule:evenodd;stroke-linejoin:round;stroke-miterlimit:2;">
    <g id="Logotipo" transform="matrix(1.1482,0,0,1.1482,-522.133362,142.397526)">
        <g id="A" transform="matrix(1,0,0,1,0,6)">
            <path d="M680.927,826.01L642.634,914.81L541.834,914.81L717.634,512.81L846.034,512.81L1023.034,914.81L919.834,914.81L881.747,826.01L680.927,826.01ZM847.006,745.01L809.434,657.41L784.834,595.01L778.234,595.01L753.634,657.41L715.857,745.01L847.006,745.01Z"/>
        </g>
        <g id="E" transform="matrix(1,0,0,1,0,6)">
            <path d="M1405.234,914.81L1065.034,914.81L1065.034,512.81L1405.234,512.81L1405.234,593.81L1155.034,593.81L1155.034,672.41L1396.234,672.41L1396.234,752.81L1155.034,752.81L1155.034,833.81L1405.234,833.81L1405.234,914.81Z"/>
        </g>
        <g id="R" transform="matrix(1,0,0,1,0,6)">
            <path d="M1557.034,914.81L1467.034,914.81L1467.034,512.81L1689.034,512.81C1722.234,512.81 1750.434,517.51 1773.634,526.91C1796.834,536.31 1814.434,550.01 1826.434,568.01C1838.434,586.01 1844.434,607.81 1844.434,633.41C1844.434,655.41 1840.234,674.21 1831.834,689.81C1823.434,705.41 1810.834,717.91 1794.034,727.31C1777.234,736.71 1756.234,742.61 1731.034,745.01L1731.034,749.81C1749.034,754.61 1762.434,761.81 1771.234,771.41C1780.034,781.01 1788.234,792.81 1795.834,806.81L1854.034,914.81L1749.634,914.81L1694.434,810.41C1688.834,800.01 1683.034,791.81 1677.034,785.81C1671.034,779.81 1663.334,775.51 1653.934,772.91C1644.534,770.31 1632.034,769.01 1616.434,769.01L1557.034,769.01L1557.034,914.81ZM1557.034,593.81L1557.034,701.21L1688.434,701.21C1709.634,701.21 1725.234,697.51 1735.234,690.11C1745.234,682.71 1750.234,668.41 1750.234,647.21C1750.234,627.21 1745.234,613.31 1735.234,605.51C1725.234,597.71 1709.634,593.81 1688.434,593.81L1557.034,593.81Z" style="fill-rule:nonzero;"/>
        </g>
        <g id="K" transform="matrix(1,0,0,1,0,6)">
            <path d="M1993.234,760.01L1993.234,914.81L1903.234,914.81L1903.234,512.81L1993.234,512.81L1993.234,672.41L2093.434,672.41L2200.234,512.81L2308.234,512.81L2168.434,710.81L2306.434,914.81L2198.434,914.81L2094.634,760.01L1993.234,760.01Z"/>
        </g>
        <g id="o" transform="matrix(1,0,0,0.971014,0,26.690159)">
            <path d="M2508.034,920.81C2464.034,920.81 2425.734,912.31 2393.134,895.31C2360.534,878.31 2335.534,854.31 2318.134,823.31C2300.734,792.31 2292.034,755.81 2292.034,713.81C2292.034,671.81 2300.734,635.31 2318.134,604.31C2335.534,573.31 2360.534,549.31 2393.134,532.31C2425.734,515.31 2464.034,506.81 2508.034,506.81C2553.634,506.81 2592.634,515.31 2625.034,532.31C2657.434,549.31 2682.434,573.31 2700.034,604.31C2717.634,635.31 2726.434,671.81 2726.434,713.81C2726.434,755.81 2717.634,792.31 2700.034,823.31C2682.434,854.31 2657.434,878.31 2625.034,895.31C2592.634,912.31 2553.634,920.81 2508.034,920.81ZM2508.034,834.41C2537.634,834.41 2561.334,830.51 2579.134,822.71C2596.934,814.91 2609.934,802.21 2618.134,784.61C2626.334,767.01 2630.434,743.41 2630.434,713.81C2630.434,683.81 2626.334,660.11 2618.134,642.71C2609.934,625.31 2596.934,612.71 2579.134,604.91C2561.334,597.11 2537.634,593.21 2508.034,593.21C2478.834,593.21 2455.434,597.11 2437.834,604.91C2420.234,612.71 2407.434,625.31 2399.434,642.71C2391.434,660.11 2387.434,683.81 2387.434,713.81C2387.434,743.41 2391.434,767.01 2399.434,784.61C2407.434,802.21 2420.234,814.91 2437.834,822.71C2455.434,830.51 2478.834,834.41 2508.034,834.41Z" style="fill-rule:nonzero;"/>
        </g>
        <g id="Guión-bajo" serif:id="Guión bajo" transform="matrix(1.064815,0,0,1,-178.268852,-4)">
            <rect x="2750.434" y="914.81" width="216" height="64.2" style="fill-rule:nonzero;"/>
        </g>
    </g>
</svg>
